<?xml version="1.0" encoding="iso-8859-1"?>
<!-- Generator: Adobe Illustrator 16.0.0, SVG Export Plug-In . SVG Version: 6.00 Build 0)  -->
<!DOCTYPE svg PUBLIC "-//W3C//DTD SVG 1.1//EN" "http://www.w3.org/Graphics/SVG/1.1/DTD/svg11.dtd">
<svg version="1.1" id="Capa_1" xmlns="http://www.w3.org/2000/svg" xmlns:xlink="http://www.w3.org/1999/xlink" x="0px" y="0px"
	 width="31.699px" height="31.699px" viewBox="0 0 31.699 31.699" style="enable-background:new 0 0 31.699 31.699;"
	 xml:space="preserve">
<g>
	<g>
		<circle cx="13.352" cy="6.459" r="2.831"/>
		<path d="M11.025,15.413c0.943,0.657,2.062,0.985,3.347,0.985c0.701,0,2.918-0.482,3.446-0.652
			c0.597-0.205,0.895-0.493,1.074-0.845c0.221-0.592,0.115-1.217,0.115-1.217c-0.179-1.11-1.263-1.362-2.105-1.057
			c-1.257,0.449-2.972,0.836-4.007,0.126c-0.438-0.3-0.713-0.768-0.885-1.222c0.258-0.852,0.092-1.812-0.527-2.542
			c-0.969-1.14-2.576-1.142-3.818-0.309c-2.132,1.43-3.787,6.502-3.787,9.357c0.01,0.002-0.085,1.398,1.478,1.533
			c0.469,0.024,4.573,0.014,5.865,0.01c0.005,0.023,0.012,0.066,0.012,0.137c-0.005,1.182,0.001,5.48,0.004,7.475
			c0.001,0.564,0.46,1.021,1.026,1.021h1.016c0.273,0,0.534-0.105,0.726-0.301c0.192-0.193,0.3-0.453,0.3-0.727
			c-0.003-1.992-0.009-6.281-0.005-7.457c0.009-2.091-1.584-3.062-2.657-3.203l-0.208-0.015c-0.614,0.002-1.346,0.004-2.082,0.006
			c0.168-0.805,0.415-1.471,0.674-2.01C10.306,14.833,10.635,15.14,11.025,15.413z"/>
		<path d="M3.071,6.738c0-0.848-0.688-1.534-1.535-1.534C0.688,5.204,0,5.891,0,6.738v15.339c0,0.791,0.601,1.441,1.371,1.521
			c0.001,0.005,0.003,0.007,0.005,0.007h0.55v3.586c0,0.563,0.451,1.022,1.015,1.022c0.565,0,1.015-0.457,1.015-1.022v-3.586h3.228
			v3.586c0,0.563,0.451,1.022,1.016,1.022c0.564,0,1.015-0.457,1.015-1.022v-3.586h0.989v-3.07H3.071V6.738z"/>
		<path d="M30.689,16.942c-0.234-1.207-1.008-2.224-2.062-2.781v-0.968h1.457V6.445l-5.567-1.996V3.46h-2.031v10.256h2.031v-0.521
			h1.041v0.696c-1.379,0.439-2.428,1.606-2.709,3.052h-6.488c-0.565,0-1.023,0.477-1.023,1.041c0,0.565,0.458,1.041,1.023,1.041
			h2.063v9.215h11.244v-9.215h1.007c0.564,0,1.023-0.476,1.023-1.041C31.702,17.423,31.25,16.948,30.689,16.942z"/>
	</g>
</g>
<g>
</g>
<g>
</g>
<g>
</g>
<g>
</g>
<g>
</g>
<g>
</g>
<g>
</g>
<g>
</g>
<g>
</g>
<g>
</g>
<g>
</g>
<g>
</g>
<g>
</g>
<g>
</g>
<g>
</g>
</svg>
